<svg width="256" height="256" viewBox="0 0 24 24" fill="none" xmlns="http://www.w3.org/2000/svg">
  <defs>
    <mask id="notifier-badge-clearance">
      <rect width="24" height="24" fill="white"/>
      <circle cx="18.75" cy="5.25" r="6.35" fill="black"/>
    </mask>
    <mask id="notifier-badge-cutout">
      <rect width="24" height="24" fill="white"/>
      <g>
        <path d="M18.75 2.98V3.35" stroke="black" stroke-width="1.5" stroke-linecap="round"/>
        <path
          d="M17.45 4.71C17.45 3.79 17.97 3.35 18.75 3.35C19.53 3.35 20.05 3.79 20.05 4.71V5.25C20.05 5.73 20.22 6.19 20.51 6.55L20.71 6.82H16.79L16.99 6.55C17.28 6.19 17.45 5.73 17.45 5.25V4.71Z"
          stroke="black"
          stroke-width="1.5"
          stroke-linejoin="round"
        />
        <path
          d="M18.15 7.14C18.3 7.42 18.5 7.53 18.75 7.53C19 7.53 19.2 7.42 19.35 7.14"
          stroke="black"
          stroke-width="1.5"
          stroke-linecap="round"
        />
      </g>
    </mask>
  </defs>

  <g mask="url(#notifier-badge-clearance)">
    <rect x="3" y="1" width="18" height="8.75" rx="1.45" stroke="#4CB6A3" stroke-width="1.5"/>
    <path
      d="M6.1 3.2L8.9 5.35L6.1 7.5"
      stroke="#4CB6A3"
      stroke-width="1.5"
      stroke-linecap="round"
      stroke-linejoin="round"
    />
    <path d="M10.45 7.1H18.45" stroke="#4CB6A3" stroke-width="1.5" stroke-linecap="round"/>

    <rect x="3" y="14.25" width="18" height="8.75" rx="1.45" stroke="#497BF0" stroke-width="1.5"/>
    <path
      d="M6.1 16.45L8.9 18.6L6.1 20.75"
      stroke="#497BF0"
      stroke-width="1.5"
      stroke-linecap="round"
      stroke-linejoin="round"
    />
    <path d="M10.45 20.35H18.45" stroke="#497BF0" stroke-width="1.5" stroke-linecap="round"/>
  </g>

  <circle cx="18.75" cy="5.25" r="4.85" fill="#4CB6A3" mask="url(#notifier-badge-cutout)"/>
</svg>
